<svg width="34" height="35" viewBox="0 0 34 35" fill="none" xmlns="http://www.w3.org/2000/svg">
<circle cx="16.8001" cy="17.3805" r="16.7999" fill="#F53838"/>
<path d="M16.8 0.580566C7.5215 0.580566 0 8.10198 0 17.3804C0 26.6588 7.5215 34.1802 16.8 34.1802C26.0785 34.1802 33.6 26.6588 33.6 17.3804C33.6 8.10198 26.0785 0.580566 16.8 0.580566ZM20.7795 12.1899H18.2542C17.955 12.1899 17.6225 12.5837 17.6225 13.1069V14.9304H20.7812L20.3035 17.5309H17.6225V25.3375H14.6422V17.5309H11.9385V14.9304H14.6422V13.4009C14.6422 11.2064 16.1647 9.42321 18.2542 9.42321H20.7795V12.1899Z" fill="white"/>
</svg>
