<svg width="34" height="35" viewBox="0 0 34 35" fill="none" xmlns="http://www.w3.org/2000/svg">
<rect width="34" height="35" fill="#F6F6F6"/>
<g clip-path="url(#clip0)">
<rect width="1440" height="5189" transform="translate(-257 -4953)" fill="white"/>
<rect x="-257" y="-327.225" width="1440" height="563.12" fill="#F8F8F8"/>
<circle cx="17" cy="17.3805" r="16.7999" fill="#F53838"/>
<path d="M22.25 17.3804C22.25 18.7727 21.6968 20.1081 20.7123 21.0926C19.7277 22.0772 18.3923 22.6303 17 22.6303C15.6076 22.6303 14.2722 22.0772 13.2876 21.0926C12.3031 20.1081 11.75 18.7727 11.75 17.3804C11.75 17.0811 11.7815 16.7889 11.8357 16.5054H9.99995V23.5C9.99995 23.9865 10.3937 24.3803 10.8802 24.3803H23.1215C23.3546 24.3798 23.5781 24.2869 23.7428 24.1219C23.9075 23.9568 24 23.7332 24 23.5V16.5054H22.1642C22.2185 16.7889 22.25 17.0811 22.25 17.3804V17.3804ZM17 20.8803C17.4597 20.8802 17.9149 20.7895 18.3396 20.6135C18.7643 20.4375 19.1502 20.1795 19.4752 19.8543C19.8002 19.5292 20.058 19.1432 20.2338 18.7184C20.4096 18.2936 20.5001 17.8384 20.5 17.3786C20.4998 16.9189 20.4092 16.4637 20.2331 16.039C20.0571 15.6143 19.7991 15.2284 19.474 14.9034C19.1488 14.5784 18.7628 14.3206 18.338 14.1448C17.9132 13.969 17.4579 13.8785 16.9982 13.8787C16.0697 13.8789 15.1793 14.248 14.523 14.9047C13.8666 15.5613 13.498 16.4519 13.4982 17.3804C13.4984 18.3089 13.8675 19.1992 14.5242 19.8556C15.1809 20.5119 16.0715 20.8806 17 20.8803V20.8803ZM21.2 13.7054H23.2982C23.4376 13.7054 23.5713 13.6502 23.6701 13.5518C23.7688 13.4533 23.8245 13.3198 23.825 13.1804V11.0822C23.825 10.9425 23.7695 10.8085 23.6707 10.7097C23.5719 10.6109 23.4379 10.5554 23.2982 10.5554H21.2C21.0603 10.5554 20.9263 10.6109 20.8275 10.7097C20.7287 10.8085 20.6732 10.9425 20.6732 11.0822V13.1804C20.675 13.4692 20.9112 13.7054 21.2 13.7054V13.7054ZM17 0.580566C12.5443 0.580566 8.27117 2.35054 5.12056 5.50111C1.96995 8.65169 0.199951 12.9248 0.199951 17.3804C0.199951 21.836 1.96995 26.1091 5.12056 29.2596C8.27117 32.4102 12.5443 34.1802 17 34.1802C19.2062 34.1802 21.3908 33.7456 23.429 32.9014C25.4673 32.0571 27.3193 30.8196 28.8793 29.2596C30.4394 27.6996 31.6769 25.8476 32.5211 23.8094C33.3654 21.7711 33.8 19.5866 33.8 17.3804C33.8 15.1742 33.3654 12.9896 32.5211 10.9514C31.6769 8.91312 30.4394 7.06112 28.8793 5.50111C27.3193 3.94111 25.4673 2.70364 23.429 1.85938C21.3908 1.01511 19.2062 0.580566 17 0.580566V0.580566ZM25.75 24.186C25.75 25.2553 24.875 26.1303 23.8057 26.1303H10.1942C9.12495 26.1303 8.24995 25.2553 8.24995 24.186V10.5747C8.24995 9.50546 9.12495 8.63047 10.1942 8.63047H23.8057C24.875 8.63047 25.75 9.50546 25.75 10.5747V24.186V24.186Z" fill="white"/>
</g>
<defs>
<clipPath id="clip0">
<rect width="1440" height="5189" fill="white" transform="translate(-257 -4953)"/>
</clipPath>
</defs>
</svg>
