<svg width="35" height="35" viewBox="0 0 35 35" fill="none" xmlns="http://www.w3.org/2000/svg">
<circle cx="17.4" cy="17.3805" r="16.7999" fill="#F53838"/>
<path d="M17.4 0.580566C8.12147 0.580566 0.599976 8.10198 0.599976 17.3804C0.599976 26.6588 8.12147 34.1802 17.4 34.1802C26.6785 34.1802 34.2 26.6588 34.2 17.3804C34.2 8.10198 26.6785 0.580566 17.4 0.580566ZM24.2337 14.3424C24.2407 14.4859 24.2425 14.6294 24.2425 14.7694C24.2425 19.1444 20.9157 24.186 14.8292 24.186C13.0307 24.189 11.2697 23.6725 9.75772 22.6986C10.015 22.7301 10.2792 22.7423 10.547 22.7423C12.0975 22.7423 13.5237 22.2156 14.656 21.3266C13.966 21.313 13.2974 21.0845 12.7434 20.673C12.1894 20.2614 11.7777 19.6873 11.5655 19.0306C12.061 19.1248 12.5715 19.1051 13.0582 18.9729C12.3093 18.8214 11.6358 18.4156 11.152 17.8243C10.6681 17.2329 10.4037 16.4925 10.4035 15.7284V15.6881C10.8497 15.9349 11.3607 16.0854 11.9032 16.1029C11.2011 15.6355 10.7041 14.9176 10.5138 14.0959C10.3235 13.2742 10.4543 12.4109 10.8795 11.6824C11.7106 12.7044 12.7472 13.5405 13.922 14.1365C15.0968 14.7324 16.3836 15.0751 17.6992 15.1421C17.532 14.4322 17.6039 13.6869 17.904 13.0221C18.204 12.3572 18.7153 11.8102 19.3583 11.4659C20.0014 11.1216 20.7401 10.9995 21.4598 11.1184C22.1794 11.2373 22.8396 11.5906 23.3377 12.1234C24.0783 11.9769 24.7884 11.7053 25.4377 11.3202C25.1909 12.0869 24.6741 12.738 23.9835 13.1524C24.6395 13.0734 25.28 12.8971 25.884 12.6292C25.4403 13.294 24.8815 13.8742 24.2337 14.3424Z" fill="white"/>
</svg>
